<mxfile host="Electron" modified="2024-09-01T16:04:01.719Z" agent="Mozilla/5.0 (X11; Linux x86_64) AppleWebKit/537.36 (KHTML, like Gecko) draw.io/24.4.0 Chrome/122.0.6261.156 Electron/29.4.0 Safari/537.36" etag="STLNvp3tXhtqDRgSeiSH" version="24.3.1" type="device">
  <diagram name="Page-1" id="Isyt01DTB5uYxsixZqiR">
    <mxGraphModel dx="785" dy="533" grid="1" gridSize="10" guides="1" tooltips="1" connect="1" arrows="1" fold="1" page="1" pageScale="1" pageWidth="850" pageHeight="1100" background="#0D1117" math="0" shadow="0">
      <root>
        <mxCell id="0" />
        <mxCell id="1" parent="0" />
        <mxCell id="87cwjVZYEazy8hR1pgYV-7" value="&lt;font face=&quot;IosevkaTerm NF&quot;&gt;0xFF&lt;/font&gt;" style="text;html=1;align=center;verticalAlign=middle;whiteSpace=wrap;rounded=0;fillColor=#0D74E7;strokeColor=none;strokeWidth=0;fontColor=#ffffff;" vertex="1" parent="1">
          <mxGeometry x="80" y="80" width="40" height="40" as="geometry" />
        </mxCell>
        <mxCell id="87cwjVZYEazy8hR1pgYV-8" value="&lt;font face=&quot;IosevkaTerm NF&quot;&gt;0xFF&lt;/font&gt;" style="text;html=1;align=center;verticalAlign=middle;whiteSpace=wrap;rounded=0;fillColor=#0D74E7;strokeColor=none;strokeWidth=0;fontColor=#ffffff;" vertex="1" parent="1">
          <mxGeometry x="80" y="120" width="40" height="40" as="geometry" />
        </mxCell>
        <mxCell id="87cwjVZYEazy8hR1pgYV-9" value="&lt;font face=&quot;IosevkaTerm NF&quot;&gt;0xFF&lt;/font&gt;" style="text;html=1;align=center;verticalAlign=middle;whiteSpace=wrap;rounded=0;fillColor=#0D74E7;strokeColor=none;strokeWidth=0;fontColor=#ffffff;" vertex="1" parent="1">
          <mxGeometry x="80" y="160" width="40" height="40" as="geometry" />
        </mxCell>
        <mxCell id="87cwjVZYEazy8hR1pgYV-10" value="&lt;font face=&quot;IosevkaTerm NF&quot;&gt;0xFF&lt;/font&gt;" style="text;html=1;align=center;verticalAlign=middle;whiteSpace=wrap;rounded=0;fillColor=#0D74E7;strokeColor=none;strokeWidth=0;fontColor=#ffffff;" vertex="1" parent="1">
          <mxGeometry x="80" y="200" width="40" height="40" as="geometry" />
        </mxCell>
        <mxCell id="87cwjVZYEazy8hR1pgYV-11" value="&lt;font face=&quot;IosevkaTerm NF&quot;&gt;0xFF&lt;/font&gt;" style="text;html=1;align=center;verticalAlign=middle;whiteSpace=wrap;rounded=0;fillColor=#0D74E7;strokeColor=none;strokeWidth=0;fontColor=#ffffff;" vertex="1" parent="1">
          <mxGeometry x="80" y="240" width="40" height="40" as="geometry" />
        </mxCell>
        <mxCell id="87cwjVZYEazy8hR1pgYV-14" value="&lt;font face=&quot;IosevkaTerm NF&quot;&gt;0xFF&lt;/font&gt;" style="text;html=1;align=center;verticalAlign=middle;whiteSpace=wrap;rounded=0;fillColor=#0D74E7;strokeColor=none;strokeWidth=0;fontColor=#ffffff;" vertex="1" parent="1">
          <mxGeometry x="80" y="280" width="40" height="40" as="geometry" />
        </mxCell>
        <mxCell id="87cwjVZYEazy8hR1pgYV-139" value="" style="rounded=0;whiteSpace=wrap;html=1;fillColor=none;strokeColor=#89929B;dashed=1;" vertex="1" parent="1">
          <mxGeometry x="80" y="80" width="680" height="240" as="geometry" />
        </mxCell>
        <mxCell id="87cwjVZYEazy8hR1pgYV-15" value="&lt;font face=&quot;IosevkaTerm NF&quot;&gt;&lt;b&gt;Wake-on-LAN&lt;/b&gt; magic packet&lt;/font&gt;" style="text;html=1;align=center;verticalAlign=middle;whiteSpace=wrap;rounded=0;" vertex="1" parent="1">
          <mxGeometry x="340" y="20" width="160" height="20" as="geometry" />
        </mxCell>
        <mxCell id="87cwjVZYEazy8hR1pgYV-17" value="&lt;b&gt;MAC:&lt;/b&gt; 18:31:BF:6E:CA:0C" style="text;html=1;align=center;verticalAlign=middle;whiteSpace=wrap;rounded=0;fontFamily=IosevkaTerm NF;fontStyle=0;labelBackgroundColor=none;" vertex="1" parent="1">
          <mxGeometry x="340" y="40" width="160" height="20" as="geometry" />
        </mxCell>
        <mxCell id="87cwjVZYEazy8hR1pgYV-18" value="0x18" style="text;html=1;align=center;verticalAlign=middle;whiteSpace=wrap;rounded=0;fontFamily=IosevkaTerm NF;" vertex="1" parent="1">
          <mxGeometry x="120" y="80" width="40" height="40" as="geometry" />
        </mxCell>
        <mxCell id="87cwjVZYEazy8hR1pgYV-19" value="0x31" style="text;html=1;align=center;verticalAlign=middle;whiteSpace=wrap;rounded=0;fontFamily=IosevkaTerm NF;" vertex="1" parent="1">
          <mxGeometry x="120" y="120" width="40" height="40" as="geometry" />
        </mxCell>
        <mxCell id="87cwjVZYEazy8hR1pgYV-20" value="0xBF" style="text;html=1;align=center;verticalAlign=middle;whiteSpace=wrap;rounded=0;fontFamily=IosevkaTerm NF;" vertex="1" parent="1">
          <mxGeometry x="120" y="160" width="40" height="40" as="geometry" />
        </mxCell>
        <mxCell id="87cwjVZYEazy8hR1pgYV-21" value="0x6E" style="text;html=1;align=center;verticalAlign=middle;whiteSpace=wrap;rounded=0;fontFamily=IosevkaTerm NF;" vertex="1" parent="1">
          <mxGeometry x="120" y="200" width="40" height="40" as="geometry" />
        </mxCell>
        <mxCell id="87cwjVZYEazy8hR1pgYV-22" value="0xCA" style="text;html=1;align=center;verticalAlign=middle;whiteSpace=wrap;rounded=0;fontFamily=IosevkaTerm NF;" vertex="1" parent="1">
          <mxGeometry x="120" y="240" width="40" height="40" as="geometry" />
        </mxCell>
        <mxCell id="87cwjVZYEazy8hR1pgYV-23" value="0x0C" style="text;html=1;align=center;verticalAlign=middle;whiteSpace=wrap;rounded=0;fontFamily=IosevkaTerm NF;" vertex="1" parent="1">
          <mxGeometry x="120" y="280" width="40" height="40" as="geometry" />
        </mxCell>
        <mxCell id="87cwjVZYEazy8hR1pgYV-24" value="0x18" style="text;html=1;align=center;verticalAlign=middle;whiteSpace=wrap;rounded=0;fontFamily=IosevkaTerm NF;" vertex="1" parent="1">
          <mxGeometry x="160" y="80" width="40" height="40" as="geometry" />
        </mxCell>
        <mxCell id="87cwjVZYEazy8hR1pgYV-25" value="0x31" style="text;html=1;align=center;verticalAlign=middle;whiteSpace=wrap;rounded=0;fontFamily=IosevkaTerm NF;" vertex="1" parent="1">
          <mxGeometry x="160" y="120" width="40" height="40" as="geometry" />
        </mxCell>
        <mxCell id="87cwjVZYEazy8hR1pgYV-26" value="0xBF" style="text;html=1;align=center;verticalAlign=middle;whiteSpace=wrap;rounded=0;fontFamily=IosevkaTerm NF;" vertex="1" parent="1">
          <mxGeometry x="160" y="160" width="40" height="40" as="geometry" />
        </mxCell>
        <mxCell id="87cwjVZYEazy8hR1pgYV-27" value="0x6E" style="text;html=1;align=center;verticalAlign=middle;whiteSpace=wrap;rounded=0;fontFamily=IosevkaTerm NF;" vertex="1" parent="1">
          <mxGeometry x="160" y="200" width="40" height="40" as="geometry" />
        </mxCell>
        <mxCell id="87cwjVZYEazy8hR1pgYV-28" value="0xCA" style="text;html=1;align=center;verticalAlign=middle;whiteSpace=wrap;rounded=0;fontFamily=IosevkaTerm NF;" vertex="1" parent="1">
          <mxGeometry x="160" y="240" width="40" height="40" as="geometry" />
        </mxCell>
        <mxCell id="87cwjVZYEazy8hR1pgYV-29" value="0x0C" style="text;html=1;align=center;verticalAlign=middle;whiteSpace=wrap;rounded=0;fontFamily=IosevkaTerm NF;" vertex="1" parent="1">
          <mxGeometry x="160" y="280" width="40" height="40" as="geometry" />
        </mxCell>
        <mxCell id="87cwjVZYEazy8hR1pgYV-30" value="0x18" style="text;html=1;align=center;verticalAlign=middle;whiteSpace=wrap;rounded=0;fontFamily=IosevkaTerm NF;" vertex="1" parent="1">
          <mxGeometry x="200" y="80" width="40" height="40" as="geometry" />
        </mxCell>
        <mxCell id="87cwjVZYEazy8hR1pgYV-31" value="0x31" style="text;html=1;align=center;verticalAlign=middle;whiteSpace=wrap;rounded=0;fontFamily=IosevkaTerm NF;" vertex="1" parent="1">
          <mxGeometry x="200" y="120" width="40" height="40" as="geometry" />
        </mxCell>
        <mxCell id="87cwjVZYEazy8hR1pgYV-32" value="0xBF" style="text;html=1;align=center;verticalAlign=middle;whiteSpace=wrap;rounded=0;fontFamily=IosevkaTerm NF;" vertex="1" parent="1">
          <mxGeometry x="200" y="160" width="40" height="40" as="geometry" />
        </mxCell>
        <mxCell id="87cwjVZYEazy8hR1pgYV-33" value="0x6E" style="text;html=1;align=center;verticalAlign=middle;whiteSpace=wrap;rounded=0;fontFamily=IosevkaTerm NF;" vertex="1" parent="1">
          <mxGeometry x="200" y="200" width="40" height="40" as="geometry" />
        </mxCell>
        <mxCell id="87cwjVZYEazy8hR1pgYV-34" value="0xCA" style="text;html=1;align=center;verticalAlign=middle;whiteSpace=wrap;rounded=0;fontFamily=IosevkaTerm NF;" vertex="1" parent="1">
          <mxGeometry x="200" y="240" width="40" height="40" as="geometry" />
        </mxCell>
        <mxCell id="87cwjVZYEazy8hR1pgYV-35" value="0x0C" style="text;html=1;align=center;verticalAlign=middle;whiteSpace=wrap;rounded=0;fontFamily=IosevkaTerm NF;" vertex="1" parent="1">
          <mxGeometry x="200" y="280" width="40" height="40" as="geometry" />
        </mxCell>
        <mxCell id="87cwjVZYEazy8hR1pgYV-36" value="0x18" style="text;html=1;align=center;verticalAlign=middle;whiteSpace=wrap;rounded=0;fontFamily=IosevkaTerm NF;" vertex="1" parent="1">
          <mxGeometry x="240" y="80" width="40" height="40" as="geometry" />
        </mxCell>
        <mxCell id="87cwjVZYEazy8hR1pgYV-37" value="0x31" style="text;html=1;align=center;verticalAlign=middle;whiteSpace=wrap;rounded=0;fontFamily=IosevkaTerm NF;" vertex="1" parent="1">
          <mxGeometry x="240" y="120" width="40" height="40" as="geometry" />
        </mxCell>
        <mxCell id="87cwjVZYEazy8hR1pgYV-38" value="0xBF" style="text;html=1;align=center;verticalAlign=middle;whiteSpace=wrap;rounded=0;fontFamily=IosevkaTerm NF;" vertex="1" parent="1">
          <mxGeometry x="240" y="160" width="40" height="40" as="geometry" />
        </mxCell>
        <mxCell id="87cwjVZYEazy8hR1pgYV-39" value="0x6E" style="text;html=1;align=center;verticalAlign=middle;whiteSpace=wrap;rounded=0;fontFamily=IosevkaTerm NF;" vertex="1" parent="1">
          <mxGeometry x="240" y="200" width="40" height="40" as="geometry" />
        </mxCell>
        <mxCell id="87cwjVZYEazy8hR1pgYV-40" value="0xCA" style="text;html=1;align=center;verticalAlign=middle;whiteSpace=wrap;rounded=0;fontFamily=IosevkaTerm NF;" vertex="1" parent="1">
          <mxGeometry x="240" y="240" width="40" height="40" as="geometry" />
        </mxCell>
        <mxCell id="87cwjVZYEazy8hR1pgYV-41" value="0x0C" style="text;html=1;align=center;verticalAlign=middle;whiteSpace=wrap;rounded=0;fontFamily=IosevkaTerm NF;" vertex="1" parent="1">
          <mxGeometry x="240" y="280" width="40" height="40" as="geometry" />
        </mxCell>
        <mxCell id="87cwjVZYEazy8hR1pgYV-42" value="0x18" style="text;html=1;align=center;verticalAlign=middle;whiteSpace=wrap;rounded=0;fontFamily=IosevkaTerm NF;" vertex="1" parent="1">
          <mxGeometry x="280" y="80" width="40" height="40" as="geometry" />
        </mxCell>
        <mxCell id="87cwjVZYEazy8hR1pgYV-43" value="0x31" style="text;html=1;align=center;verticalAlign=middle;whiteSpace=wrap;rounded=0;fontFamily=IosevkaTerm NF;" vertex="1" parent="1">
          <mxGeometry x="280" y="120" width="40" height="40" as="geometry" />
        </mxCell>
        <mxCell id="87cwjVZYEazy8hR1pgYV-44" value="0xBF" style="text;html=1;align=center;verticalAlign=middle;whiteSpace=wrap;rounded=0;fontFamily=IosevkaTerm NF;" vertex="1" parent="1">
          <mxGeometry x="280" y="160" width="40" height="40" as="geometry" />
        </mxCell>
        <mxCell id="87cwjVZYEazy8hR1pgYV-45" value="0x6E" style="text;html=1;align=center;verticalAlign=middle;whiteSpace=wrap;rounded=0;fontFamily=IosevkaTerm NF;" vertex="1" parent="1">
          <mxGeometry x="280" y="200" width="40" height="40" as="geometry" />
        </mxCell>
        <mxCell id="87cwjVZYEazy8hR1pgYV-46" value="0xCA" style="text;html=1;align=center;verticalAlign=middle;whiteSpace=wrap;rounded=0;fontFamily=IosevkaTerm NF;" vertex="1" parent="1">
          <mxGeometry x="280" y="240" width="40" height="40" as="geometry" />
        </mxCell>
        <mxCell id="87cwjVZYEazy8hR1pgYV-47" value="0x0C" style="text;html=1;align=center;verticalAlign=middle;whiteSpace=wrap;rounded=0;fontFamily=IosevkaTerm NF;" vertex="1" parent="1">
          <mxGeometry x="280" y="280" width="40" height="40" as="geometry" />
        </mxCell>
        <mxCell id="87cwjVZYEazy8hR1pgYV-48" value="0x18" style="text;html=1;align=center;verticalAlign=middle;whiteSpace=wrap;rounded=0;fontFamily=IosevkaTerm NF;" vertex="1" parent="1">
          <mxGeometry x="320" y="80" width="40" height="40" as="geometry" />
        </mxCell>
        <mxCell id="87cwjVZYEazy8hR1pgYV-49" value="0x31" style="text;html=1;align=center;verticalAlign=middle;whiteSpace=wrap;rounded=0;fontFamily=IosevkaTerm NF;" vertex="1" parent="1">
          <mxGeometry x="320" y="120" width="40" height="40" as="geometry" />
        </mxCell>
        <mxCell id="87cwjVZYEazy8hR1pgYV-50" value="0xBF" style="text;html=1;align=center;verticalAlign=middle;whiteSpace=wrap;rounded=0;fontFamily=IosevkaTerm NF;" vertex="1" parent="1">
          <mxGeometry x="320" y="160" width="40" height="40" as="geometry" />
        </mxCell>
        <mxCell id="87cwjVZYEazy8hR1pgYV-51" value="0x6E" style="text;html=1;align=center;verticalAlign=middle;whiteSpace=wrap;rounded=0;fontFamily=IosevkaTerm NF;" vertex="1" parent="1">
          <mxGeometry x="320" y="200" width="40" height="40" as="geometry" />
        </mxCell>
        <mxCell id="87cwjVZYEazy8hR1pgYV-52" value="0xCA" style="text;html=1;align=center;verticalAlign=middle;whiteSpace=wrap;rounded=0;fontFamily=IosevkaTerm NF;" vertex="1" parent="1">
          <mxGeometry x="320" y="240" width="40" height="40" as="geometry" />
        </mxCell>
        <mxCell id="87cwjVZYEazy8hR1pgYV-53" value="0x0C" style="text;html=1;align=center;verticalAlign=middle;whiteSpace=wrap;rounded=0;fontFamily=IosevkaTerm NF;" vertex="1" parent="1">
          <mxGeometry x="320" y="280" width="40" height="40" as="geometry" />
        </mxCell>
        <mxCell id="87cwjVZYEazy8hR1pgYV-54" value="0x18" style="text;html=1;align=center;verticalAlign=middle;whiteSpace=wrap;rounded=0;fontFamily=IosevkaTerm NF;" vertex="1" parent="1">
          <mxGeometry x="360" y="80" width="40" height="40" as="geometry" />
        </mxCell>
        <mxCell id="87cwjVZYEazy8hR1pgYV-55" value="0x31" style="text;html=1;align=center;verticalAlign=middle;whiteSpace=wrap;rounded=0;fontFamily=IosevkaTerm NF;" vertex="1" parent="1">
          <mxGeometry x="360" y="120" width="40" height="40" as="geometry" />
        </mxCell>
        <mxCell id="87cwjVZYEazy8hR1pgYV-56" value="0xBF" style="text;html=1;align=center;verticalAlign=middle;whiteSpace=wrap;rounded=0;fontFamily=IosevkaTerm NF;" vertex="1" parent="1">
          <mxGeometry x="360" y="160" width="40" height="40" as="geometry" />
        </mxCell>
        <mxCell id="87cwjVZYEazy8hR1pgYV-57" value="0x6E" style="text;html=1;align=center;verticalAlign=middle;whiteSpace=wrap;rounded=0;fontFamily=IosevkaTerm NF;" vertex="1" parent="1">
          <mxGeometry x="360" y="200" width="40" height="40" as="geometry" />
        </mxCell>
        <mxCell id="87cwjVZYEazy8hR1pgYV-58" value="0xCA" style="text;html=1;align=center;verticalAlign=middle;whiteSpace=wrap;rounded=0;fontFamily=IosevkaTerm NF;" vertex="1" parent="1">
          <mxGeometry x="360" y="240" width="40" height="40" as="geometry" />
        </mxCell>
        <mxCell id="87cwjVZYEazy8hR1pgYV-59" value="0x0C" style="text;html=1;align=center;verticalAlign=middle;whiteSpace=wrap;rounded=0;fontFamily=IosevkaTerm NF;" vertex="1" parent="1">
          <mxGeometry x="360" y="280" width="40" height="40" as="geometry" />
        </mxCell>
        <mxCell id="87cwjVZYEazy8hR1pgYV-60" value="0x18" style="text;html=1;align=center;verticalAlign=middle;whiteSpace=wrap;rounded=0;fontFamily=IosevkaTerm NF;" vertex="1" parent="1">
          <mxGeometry x="400" y="80" width="40" height="40" as="geometry" />
        </mxCell>
        <mxCell id="87cwjVZYEazy8hR1pgYV-61" value="0x31" style="text;html=1;align=center;verticalAlign=middle;whiteSpace=wrap;rounded=0;fontFamily=IosevkaTerm NF;" vertex="1" parent="1">
          <mxGeometry x="400" y="120" width="40" height="40" as="geometry" />
        </mxCell>
        <mxCell id="87cwjVZYEazy8hR1pgYV-62" value="0xBF" style="text;html=1;align=center;verticalAlign=middle;whiteSpace=wrap;rounded=0;fontFamily=IosevkaTerm NF;" vertex="1" parent="1">
          <mxGeometry x="400" y="160" width="40" height="40" as="geometry" />
        </mxCell>
        <mxCell id="87cwjVZYEazy8hR1pgYV-63" value="0x6E" style="text;html=1;align=center;verticalAlign=middle;whiteSpace=wrap;rounded=0;fontFamily=IosevkaTerm NF;" vertex="1" parent="1">
          <mxGeometry x="400" y="200" width="40" height="40" as="geometry" />
        </mxCell>
        <mxCell id="87cwjVZYEazy8hR1pgYV-64" value="0xCA" style="text;html=1;align=center;verticalAlign=middle;whiteSpace=wrap;rounded=0;fontFamily=IosevkaTerm NF;" vertex="1" parent="1">
          <mxGeometry x="400" y="240" width="40" height="40" as="geometry" />
        </mxCell>
        <mxCell id="87cwjVZYEazy8hR1pgYV-65" value="0x0C" style="text;html=1;align=center;verticalAlign=middle;whiteSpace=wrap;rounded=0;fontFamily=IosevkaTerm NF;" vertex="1" parent="1">
          <mxGeometry x="400" y="280" width="40" height="40" as="geometry" />
        </mxCell>
        <mxCell id="87cwjVZYEazy8hR1pgYV-66" value="0x18" style="text;html=1;align=center;verticalAlign=middle;whiteSpace=wrap;rounded=0;fontFamily=IosevkaTerm NF;" vertex="1" parent="1">
          <mxGeometry x="440" y="80" width="40" height="40" as="geometry" />
        </mxCell>
        <mxCell id="87cwjVZYEazy8hR1pgYV-67" value="0x31" style="text;html=1;align=center;verticalAlign=middle;whiteSpace=wrap;rounded=0;fontFamily=IosevkaTerm NF;" vertex="1" parent="1">
          <mxGeometry x="440" y="120" width="40" height="40" as="geometry" />
        </mxCell>
        <mxCell id="87cwjVZYEazy8hR1pgYV-68" value="0xBF" style="text;html=1;align=center;verticalAlign=middle;whiteSpace=wrap;rounded=0;fontFamily=IosevkaTerm NF;" vertex="1" parent="1">
          <mxGeometry x="440" y="160" width="40" height="40" as="geometry" />
        </mxCell>
        <mxCell id="87cwjVZYEazy8hR1pgYV-69" value="0x6E" style="text;html=1;align=center;verticalAlign=middle;whiteSpace=wrap;rounded=0;fontFamily=IosevkaTerm NF;" vertex="1" parent="1">
          <mxGeometry x="440" y="200" width="40" height="40" as="geometry" />
        </mxCell>
        <mxCell id="87cwjVZYEazy8hR1pgYV-70" value="0xCA" style="text;html=1;align=center;verticalAlign=middle;whiteSpace=wrap;rounded=0;fontFamily=IosevkaTerm NF;" vertex="1" parent="1">
          <mxGeometry x="440" y="240" width="40" height="40" as="geometry" />
        </mxCell>
        <mxCell id="87cwjVZYEazy8hR1pgYV-71" value="0x0C" style="text;html=1;align=center;verticalAlign=middle;whiteSpace=wrap;rounded=0;fontFamily=IosevkaTerm NF;" vertex="1" parent="1">
          <mxGeometry x="440" y="280" width="40" height="40" as="geometry" />
        </mxCell>
        <mxCell id="87cwjVZYEazy8hR1pgYV-72" value="0x18" style="text;html=1;align=center;verticalAlign=middle;whiteSpace=wrap;rounded=0;fontFamily=IosevkaTerm NF;" vertex="1" parent="1">
          <mxGeometry x="480" y="80" width="40" height="40" as="geometry" />
        </mxCell>
        <mxCell id="87cwjVZYEazy8hR1pgYV-73" value="0x31" style="text;html=1;align=center;verticalAlign=middle;whiteSpace=wrap;rounded=0;fontFamily=IosevkaTerm NF;" vertex="1" parent="1">
          <mxGeometry x="480" y="120" width="40" height="40" as="geometry" />
        </mxCell>
        <mxCell id="87cwjVZYEazy8hR1pgYV-74" value="0xBF" style="text;html=1;align=center;verticalAlign=middle;whiteSpace=wrap;rounded=0;fontFamily=IosevkaTerm NF;" vertex="1" parent="1">
          <mxGeometry x="480" y="160" width="40" height="40" as="geometry" />
        </mxCell>
        <mxCell id="87cwjVZYEazy8hR1pgYV-75" value="0x6E" style="text;html=1;align=center;verticalAlign=middle;whiteSpace=wrap;rounded=0;fontFamily=IosevkaTerm NF;" vertex="1" parent="1">
          <mxGeometry x="480" y="200" width="40" height="40" as="geometry" />
        </mxCell>
        <mxCell id="87cwjVZYEazy8hR1pgYV-76" value="0xCA" style="text;html=1;align=center;verticalAlign=middle;whiteSpace=wrap;rounded=0;fontFamily=IosevkaTerm NF;" vertex="1" parent="1">
          <mxGeometry x="480" y="240" width="40" height="40" as="geometry" />
        </mxCell>
        <mxCell id="87cwjVZYEazy8hR1pgYV-77" value="0x0C" style="text;html=1;align=center;verticalAlign=middle;whiteSpace=wrap;rounded=0;fontFamily=IosevkaTerm NF;" vertex="1" parent="1">
          <mxGeometry x="480" y="280" width="40" height="40" as="geometry" />
        </mxCell>
        <mxCell id="87cwjVZYEazy8hR1pgYV-78" value="0x18" style="text;html=1;align=center;verticalAlign=middle;whiteSpace=wrap;rounded=0;fontFamily=IosevkaTerm NF;" vertex="1" parent="1">
          <mxGeometry x="520" y="80" width="40" height="40" as="geometry" />
        </mxCell>
        <mxCell id="87cwjVZYEazy8hR1pgYV-79" value="0x31" style="text;html=1;align=center;verticalAlign=middle;whiteSpace=wrap;rounded=0;fontFamily=IosevkaTerm NF;" vertex="1" parent="1">
          <mxGeometry x="520" y="120" width="40" height="40" as="geometry" />
        </mxCell>
        <mxCell id="87cwjVZYEazy8hR1pgYV-80" value="0xBF" style="text;html=1;align=center;verticalAlign=middle;whiteSpace=wrap;rounded=0;fontFamily=IosevkaTerm NF;" vertex="1" parent="1">
          <mxGeometry x="520" y="160" width="40" height="40" as="geometry" />
        </mxCell>
        <mxCell id="87cwjVZYEazy8hR1pgYV-81" value="0x6E" style="text;html=1;align=center;verticalAlign=middle;whiteSpace=wrap;rounded=0;fontFamily=IosevkaTerm NF;" vertex="1" parent="1">
          <mxGeometry x="520" y="200" width="40" height="40" as="geometry" />
        </mxCell>
        <mxCell id="87cwjVZYEazy8hR1pgYV-82" value="0xCA" style="text;html=1;align=center;verticalAlign=middle;whiteSpace=wrap;rounded=0;fontFamily=IosevkaTerm NF;" vertex="1" parent="1">
          <mxGeometry x="520" y="240" width="40" height="40" as="geometry" />
        </mxCell>
        <mxCell id="87cwjVZYEazy8hR1pgYV-83" value="0x0C" style="text;html=1;align=center;verticalAlign=middle;whiteSpace=wrap;rounded=0;fontFamily=IosevkaTerm NF;" vertex="1" parent="1">
          <mxGeometry x="520" y="280" width="40" height="40" as="geometry" />
        </mxCell>
        <mxCell id="87cwjVZYEazy8hR1pgYV-84" value="0x18" style="text;html=1;align=center;verticalAlign=middle;whiteSpace=wrap;rounded=0;fontFamily=IosevkaTerm NF;" vertex="1" parent="1">
          <mxGeometry x="560" y="80" width="40" height="40" as="geometry" />
        </mxCell>
        <mxCell id="87cwjVZYEazy8hR1pgYV-85" value="0x31" style="text;html=1;align=center;verticalAlign=middle;whiteSpace=wrap;rounded=0;fontFamily=IosevkaTerm NF;" vertex="1" parent="1">
          <mxGeometry x="560" y="120" width="40" height="40" as="geometry" />
        </mxCell>
        <mxCell id="87cwjVZYEazy8hR1pgYV-86" value="0xBF" style="text;html=1;align=center;verticalAlign=middle;whiteSpace=wrap;rounded=0;fontFamily=IosevkaTerm NF;" vertex="1" parent="1">
          <mxGeometry x="560" y="160" width="40" height="40" as="geometry" />
        </mxCell>
        <mxCell id="87cwjVZYEazy8hR1pgYV-87" value="0x6E" style="text;html=1;align=center;verticalAlign=middle;whiteSpace=wrap;rounded=0;fontFamily=IosevkaTerm NF;" vertex="1" parent="1">
          <mxGeometry x="560" y="200" width="40" height="40" as="geometry" />
        </mxCell>
        <mxCell id="87cwjVZYEazy8hR1pgYV-88" value="0xCA" style="text;html=1;align=center;verticalAlign=middle;whiteSpace=wrap;rounded=0;fontFamily=IosevkaTerm NF;" vertex="1" parent="1">
          <mxGeometry x="560" y="240" width="40" height="40" as="geometry" />
        </mxCell>
        <mxCell id="87cwjVZYEazy8hR1pgYV-89" value="0x0C" style="text;html=1;align=center;verticalAlign=middle;whiteSpace=wrap;rounded=0;fontFamily=IosevkaTerm NF;" vertex="1" parent="1">
          <mxGeometry x="560" y="280" width="40" height="40" as="geometry" />
        </mxCell>
        <mxCell id="87cwjVZYEazy8hR1pgYV-90" value="0x18" style="text;html=1;align=center;verticalAlign=middle;whiteSpace=wrap;rounded=0;fontFamily=IosevkaTerm NF;" vertex="1" parent="1">
          <mxGeometry x="600" y="80" width="40" height="40" as="geometry" />
        </mxCell>
        <mxCell id="87cwjVZYEazy8hR1pgYV-91" value="0x31" style="text;html=1;align=center;verticalAlign=middle;whiteSpace=wrap;rounded=0;fontFamily=IosevkaTerm NF;" vertex="1" parent="1">
          <mxGeometry x="600" y="120" width="40" height="40" as="geometry" />
        </mxCell>
        <mxCell id="87cwjVZYEazy8hR1pgYV-92" value="0xBF" style="text;html=1;align=center;verticalAlign=middle;whiteSpace=wrap;rounded=0;fontFamily=IosevkaTerm NF;" vertex="1" parent="1">
          <mxGeometry x="600" y="160" width="40" height="40" as="geometry" />
        </mxCell>
        <mxCell id="87cwjVZYEazy8hR1pgYV-93" value="0x6E" style="text;html=1;align=center;verticalAlign=middle;whiteSpace=wrap;rounded=0;fontFamily=IosevkaTerm NF;" vertex="1" parent="1">
          <mxGeometry x="600" y="200" width="40" height="40" as="geometry" />
        </mxCell>
        <mxCell id="87cwjVZYEazy8hR1pgYV-94" value="0xCA" style="text;html=1;align=center;verticalAlign=middle;whiteSpace=wrap;rounded=0;fontFamily=IosevkaTerm NF;" vertex="1" parent="1">
          <mxGeometry x="600" y="240" width="40" height="40" as="geometry" />
        </mxCell>
        <mxCell id="87cwjVZYEazy8hR1pgYV-95" value="0x0C" style="text;html=1;align=center;verticalAlign=middle;whiteSpace=wrap;rounded=0;fontFamily=IosevkaTerm NF;" vertex="1" parent="1">
          <mxGeometry x="600" y="280" width="40" height="40" as="geometry" />
        </mxCell>
        <mxCell id="87cwjVZYEazy8hR1pgYV-96" value="0x18" style="text;html=1;align=center;verticalAlign=middle;whiteSpace=wrap;rounded=0;fontFamily=IosevkaTerm NF;" vertex="1" parent="1">
          <mxGeometry x="640" y="80" width="40" height="40" as="geometry" />
        </mxCell>
        <mxCell id="87cwjVZYEazy8hR1pgYV-97" value="0x31" style="text;html=1;align=center;verticalAlign=middle;whiteSpace=wrap;rounded=0;fontFamily=IosevkaTerm NF;" vertex="1" parent="1">
          <mxGeometry x="640" y="120" width="40" height="40" as="geometry" />
        </mxCell>
        <mxCell id="87cwjVZYEazy8hR1pgYV-98" value="0xBF" style="text;html=1;align=center;verticalAlign=middle;whiteSpace=wrap;rounded=0;fontFamily=IosevkaTerm NF;" vertex="1" parent="1">
          <mxGeometry x="640" y="160" width="40" height="40" as="geometry" />
        </mxCell>
        <mxCell id="87cwjVZYEazy8hR1pgYV-99" value="0x6E" style="text;html=1;align=center;verticalAlign=middle;whiteSpace=wrap;rounded=0;fontFamily=IosevkaTerm NF;" vertex="1" parent="1">
          <mxGeometry x="640" y="200" width="40" height="40" as="geometry" />
        </mxCell>
        <mxCell id="87cwjVZYEazy8hR1pgYV-100" value="0xCA" style="text;html=1;align=center;verticalAlign=middle;whiteSpace=wrap;rounded=0;fontFamily=IosevkaTerm NF;" vertex="1" parent="1">
          <mxGeometry x="640" y="240" width="40" height="40" as="geometry" />
        </mxCell>
        <mxCell id="87cwjVZYEazy8hR1pgYV-101" value="0x0C" style="text;html=1;align=center;verticalAlign=middle;whiteSpace=wrap;rounded=0;fontFamily=IosevkaTerm NF;" vertex="1" parent="1">
          <mxGeometry x="640" y="280" width="40" height="40" as="geometry" />
        </mxCell>
        <mxCell id="87cwjVZYEazy8hR1pgYV-102" value="0x18" style="text;html=1;align=center;verticalAlign=middle;whiteSpace=wrap;rounded=0;fontFamily=IosevkaTerm NF;" vertex="1" parent="1">
          <mxGeometry x="680" y="80" width="40" height="40" as="geometry" />
        </mxCell>
        <mxCell id="87cwjVZYEazy8hR1pgYV-103" value="0x31" style="text;html=1;align=center;verticalAlign=middle;whiteSpace=wrap;rounded=0;fontFamily=IosevkaTerm NF;" vertex="1" parent="1">
          <mxGeometry x="680" y="120" width="40" height="40" as="geometry" />
        </mxCell>
        <mxCell id="87cwjVZYEazy8hR1pgYV-104" value="0xBF" style="text;html=1;align=center;verticalAlign=middle;whiteSpace=wrap;rounded=0;fontFamily=IosevkaTerm NF;" vertex="1" parent="1">
          <mxGeometry x="680" y="160" width="40" height="40" as="geometry" />
        </mxCell>
        <mxCell id="87cwjVZYEazy8hR1pgYV-105" value="0x6E" style="text;html=1;align=center;verticalAlign=middle;whiteSpace=wrap;rounded=0;fontFamily=IosevkaTerm NF;" vertex="1" parent="1">
          <mxGeometry x="680" y="200" width="40" height="40" as="geometry" />
        </mxCell>
        <mxCell id="87cwjVZYEazy8hR1pgYV-106" value="0xCA" style="text;html=1;align=center;verticalAlign=middle;whiteSpace=wrap;rounded=0;fontFamily=IosevkaTerm NF;" vertex="1" parent="1">
          <mxGeometry x="680" y="240" width="40" height="40" as="geometry" />
        </mxCell>
        <mxCell id="87cwjVZYEazy8hR1pgYV-107" value="0x0C" style="text;html=1;align=center;verticalAlign=middle;whiteSpace=wrap;rounded=0;fontFamily=IosevkaTerm NF;" vertex="1" parent="1">
          <mxGeometry x="680" y="280" width="40" height="40" as="geometry" />
        </mxCell>
        <mxCell id="87cwjVZYEazy8hR1pgYV-108" value="0x18" style="text;html=1;align=center;verticalAlign=middle;whiteSpace=wrap;rounded=0;fontFamily=IosevkaTerm NF;" vertex="1" parent="1">
          <mxGeometry x="720" y="80" width="40" height="40" as="geometry" />
        </mxCell>
        <mxCell id="87cwjVZYEazy8hR1pgYV-109" value="0x31" style="text;html=1;align=center;verticalAlign=middle;whiteSpace=wrap;rounded=0;fontFamily=IosevkaTerm NF;" vertex="1" parent="1">
          <mxGeometry x="720" y="120" width="40" height="40" as="geometry" />
        </mxCell>
        <mxCell id="87cwjVZYEazy8hR1pgYV-110" value="0xBF" style="text;html=1;align=center;verticalAlign=middle;whiteSpace=wrap;rounded=0;fontFamily=IosevkaTerm NF;" vertex="1" parent="1">
          <mxGeometry x="720" y="160" width="40" height="40" as="geometry" />
        </mxCell>
        <mxCell id="87cwjVZYEazy8hR1pgYV-111" value="0x6E" style="text;html=1;align=center;verticalAlign=middle;whiteSpace=wrap;rounded=0;fontFamily=IosevkaTerm NF;" vertex="1" parent="1">
          <mxGeometry x="720" y="200" width="40" height="40" as="geometry" />
        </mxCell>
        <mxCell id="87cwjVZYEazy8hR1pgYV-112" value="0xCA" style="text;html=1;align=center;verticalAlign=middle;whiteSpace=wrap;rounded=0;fontFamily=IosevkaTerm NF;" vertex="1" parent="1">
          <mxGeometry x="720" y="240" width="40" height="40" as="geometry" />
        </mxCell>
        <mxCell id="87cwjVZYEazy8hR1pgYV-113" value="0x0C" style="text;html=1;align=center;verticalAlign=middle;whiteSpace=wrap;rounded=0;fontFamily=IosevkaTerm NF;" vertex="1" parent="1">
          <mxGeometry x="720" y="280" width="40" height="40" as="geometry" />
        </mxCell>
        <mxCell id="87cwjVZYEazy8hR1pgYV-115" value="(Read each column top to bottom, starting from the leftmost column)" style="text;html=1;align=center;verticalAlign=middle;whiteSpace=wrap;rounded=0;fontFamily=IosevkaTerm NF;fontSize=10;fontColor=#89929B;" vertex="1" parent="1">
          <mxGeometry x="80" y="50" width="680" height="30" as="geometry" />
        </mxCell>
        <mxCell id="87cwjVZYEazy8hR1pgYV-116" value="bytes 0-5" style="text;html=1;align=center;verticalAlign=middle;whiteSpace=wrap;rounded=0;labelBackgroundColor=none;fontSize=10;fontFamily=IosevkaTerm NF;labelBorderColor=none;textShadow=0;" vertex="1" parent="1">
          <mxGeometry x="80" y="50" width="40" height="30" as="geometry" />
        </mxCell>
        <mxCell id="87cwjVZYEazy8hR1pgYV-117" value="0" style="text;html=1;align=center;verticalAlign=middle;whiteSpace=wrap;rounded=0;labelBackgroundColor=#0D1117;fontSize=10;fontFamily=IosevkaTerm NF;labelBorderColor=none;textShadow=0;" vertex="1" parent="1">
          <mxGeometry x="70" y="90" width="10" height="20" as="geometry" />
        </mxCell>
        <mxCell id="87cwjVZYEazy8hR1pgYV-118" value="1" style="text;html=1;align=center;verticalAlign=middle;whiteSpace=wrap;rounded=0;labelBackgroundColor=#0D1117;fontSize=10;fontFamily=IosevkaTerm NF;labelBorderColor=none;textShadow=0;" vertex="1" parent="1">
          <mxGeometry x="70" y="130" width="10" height="20" as="geometry" />
        </mxCell>
        <mxCell id="87cwjVZYEazy8hR1pgYV-119" value="2" style="text;html=1;align=center;verticalAlign=middle;whiteSpace=wrap;rounded=0;labelBackgroundColor=#0D1117;fontSize=10;fontFamily=IosevkaTerm NF;labelBorderColor=none;textShadow=0;" vertex="1" parent="1">
          <mxGeometry x="70" y="170" width="10" height="20" as="geometry" />
        </mxCell>
        <mxCell id="87cwjVZYEazy8hR1pgYV-120" value="3" style="text;html=1;align=center;verticalAlign=middle;whiteSpace=wrap;rounded=0;labelBackgroundColor=#0D1117;fontSize=10;fontFamily=IosevkaTerm NF;labelBorderColor=none;textShadow=0;" vertex="1" parent="1">
          <mxGeometry x="70" y="210" width="10" height="20" as="geometry" />
        </mxCell>
        <mxCell id="87cwjVZYEazy8hR1pgYV-121" value="4" style="text;html=1;align=center;verticalAlign=middle;whiteSpace=wrap;rounded=0;labelBackgroundColor=#0D1117;fontSize=10;fontFamily=IosevkaTerm NF;labelBorderColor=none;textShadow=0;" vertex="1" parent="1">
          <mxGeometry x="70" y="250" width="10" height="20" as="geometry" />
        </mxCell>
        <mxCell id="87cwjVZYEazy8hR1pgYV-122" value="5" style="text;html=1;align=center;verticalAlign=middle;whiteSpace=wrap;rounded=0;labelBackgroundColor=#0D1117;fontSize=10;fontFamily=IosevkaTerm NF;labelBorderColor=none;textShadow=0;" vertex="1" parent="1">
          <mxGeometry x="70" y="290" width="10" height="20" as="geometry" />
        </mxCell>
        <mxCell id="87cwjVZYEazy8hR1pgYV-123" value="6" style="text;html=1;align=center;verticalAlign=middle;whiteSpace=wrap;rounded=0;labelBackgroundColor=#0D1117;fontSize=10;fontFamily=IosevkaTerm NF;labelBorderColor=none;textShadow=0;" vertex="1" parent="1">
          <mxGeometry x="130" y="70" width="20" height="20" as="geometry" />
        </mxCell>
        <mxCell id="87cwjVZYEazy8hR1pgYV-124" value="12" style="text;html=1;align=center;verticalAlign=middle;whiteSpace=wrap;rounded=0;labelBackgroundColor=#0D1117;fontSize=10;fontFamily=IosevkaTerm NF;labelBorderColor=none;textShadow=0;" vertex="1" parent="1">
          <mxGeometry x="170" y="70" width="20" height="20" as="geometry" />
        </mxCell>
        <mxCell id="87cwjVZYEazy8hR1pgYV-125" value="18" style="text;html=1;align=center;verticalAlign=middle;whiteSpace=wrap;rounded=0;labelBackgroundColor=#0D1117;fontSize=10;fontFamily=IosevkaTerm NF;labelBorderColor=none;textShadow=0;" vertex="1" parent="1">
          <mxGeometry x="210" y="70" width="20" height="20" as="geometry" />
        </mxCell>
        <mxCell id="87cwjVZYEazy8hR1pgYV-126" value="24" style="text;html=1;align=center;verticalAlign=middle;whiteSpace=wrap;rounded=0;labelBackgroundColor=#0D1117;fontSize=10;fontFamily=IosevkaTerm NF;labelBorderColor=none;textShadow=0;" vertex="1" parent="1">
          <mxGeometry x="250" y="70" width="20" height="20" as="geometry" />
        </mxCell>
        <mxCell id="87cwjVZYEazy8hR1pgYV-127" value="30" style="text;html=1;align=center;verticalAlign=middle;whiteSpace=wrap;rounded=0;labelBackgroundColor=#0D1117;fontSize=10;fontFamily=IosevkaTerm NF;labelBorderColor=none;textShadow=0;" vertex="1" parent="1">
          <mxGeometry x="290" y="70" width="20" height="20" as="geometry" />
        </mxCell>
        <mxCell id="87cwjVZYEazy8hR1pgYV-128" value="36" style="text;html=1;align=center;verticalAlign=middle;whiteSpace=wrap;rounded=0;labelBackgroundColor=#0D1117;fontSize=10;fontFamily=IosevkaTerm NF;labelBorderColor=none;textShadow=0;" vertex="1" parent="1">
          <mxGeometry x="330" y="70" width="20" height="20" as="geometry" />
        </mxCell>
        <mxCell id="87cwjVZYEazy8hR1pgYV-129" value="42" style="text;html=1;align=center;verticalAlign=middle;whiteSpace=wrap;rounded=0;labelBackgroundColor=#0D1117;fontSize=10;fontFamily=IosevkaTerm NF;labelBorderColor=none;textShadow=0;" vertex="1" parent="1">
          <mxGeometry x="370" y="70" width="20" height="20" as="geometry" />
        </mxCell>
        <mxCell id="87cwjVZYEazy8hR1pgYV-130" value="48" style="text;html=1;align=center;verticalAlign=middle;whiteSpace=wrap;rounded=0;labelBackgroundColor=#0D1117;fontSize=10;fontFamily=IosevkaTerm NF;labelBorderColor=none;textShadow=0;" vertex="1" parent="1">
          <mxGeometry x="410" y="70" width="20" height="20" as="geometry" />
        </mxCell>
        <mxCell id="87cwjVZYEazy8hR1pgYV-131" value="54" style="text;html=1;align=center;verticalAlign=middle;whiteSpace=wrap;rounded=0;labelBackgroundColor=#0D1117;fontSize=10;fontFamily=IosevkaTerm NF;labelBorderColor=none;textShadow=0;" vertex="1" parent="1">
          <mxGeometry x="450" y="70" width="20" height="20" as="geometry" />
        </mxCell>
        <mxCell id="87cwjVZYEazy8hR1pgYV-132" value="60" style="text;html=1;align=center;verticalAlign=middle;whiteSpace=wrap;rounded=0;labelBackgroundColor=#0D1117;fontSize=10;fontFamily=IosevkaTerm NF;labelBorderColor=none;textShadow=0;" vertex="1" parent="1">
          <mxGeometry x="490" y="70" width="20" height="20" as="geometry" />
        </mxCell>
        <mxCell id="87cwjVZYEazy8hR1pgYV-133" value="66" style="text;html=1;align=center;verticalAlign=middle;whiteSpace=wrap;rounded=0;labelBackgroundColor=#0D1117;fontSize=10;fontFamily=IosevkaTerm NF;labelBorderColor=none;textShadow=0;" vertex="1" parent="1">
          <mxGeometry x="530" y="70" width="20" height="20" as="geometry" />
        </mxCell>
        <mxCell id="87cwjVZYEazy8hR1pgYV-134" value="72" style="text;html=1;align=center;verticalAlign=middle;whiteSpace=wrap;rounded=0;labelBackgroundColor=#0D1117;fontSize=10;fontFamily=IosevkaTerm NF;labelBorderColor=none;textShadow=0;" vertex="1" parent="1">
          <mxGeometry x="570" y="70" width="20" height="20" as="geometry" />
        </mxCell>
        <mxCell id="87cwjVZYEazy8hR1pgYV-135" value="78" style="text;html=1;align=center;verticalAlign=middle;whiteSpace=wrap;rounded=0;labelBackgroundColor=#0D1117;fontSize=10;fontFamily=IosevkaTerm NF;labelBorderColor=none;textShadow=0;" vertex="1" parent="1">
          <mxGeometry x="610" y="70" width="20" height="20" as="geometry" />
        </mxCell>
        <mxCell id="87cwjVZYEazy8hR1pgYV-136" value="84" style="text;html=1;align=center;verticalAlign=middle;whiteSpace=wrap;rounded=0;labelBackgroundColor=#0D1117;fontSize=10;fontFamily=IosevkaTerm NF;labelBorderColor=none;textShadow=0;" vertex="1" parent="1">
          <mxGeometry x="650" y="70" width="20" height="20" as="geometry" />
        </mxCell>
        <mxCell id="87cwjVZYEazy8hR1pgYV-137" value="90" style="text;html=1;align=center;verticalAlign=middle;whiteSpace=wrap;rounded=0;labelBackgroundColor=#0D1117;fontSize=10;fontFamily=IosevkaTerm NF;labelBorderColor=none;textShadow=0;" vertex="1" parent="1">
          <mxGeometry x="690" y="70" width="20" height="20" as="geometry" />
        </mxCell>
        <mxCell id="87cwjVZYEazy8hR1pgYV-138" value="96" style="text;html=1;align=center;verticalAlign=middle;whiteSpace=wrap;rounded=0;labelBackgroundColor=#0D1117;fontSize=10;fontFamily=IosevkaTerm NF;labelBorderColor=none;textShadow=0;" vertex="1" parent="1">
          <mxGeometry x="730" y="70" width="20" height="20" as="geometry" />
        </mxCell>
      </root>
    </mxGraphModel>
  </diagram>
</mxfile>
